<svg width="113" height="15" viewBox="0 0 113 15" fill="none" xmlns="http://www.w3.org/2000/svg">
<g clip-path="url(#clip0_36_35)">
<path d="M15.1634 5.39297C12.6749 5.39297 10.9042 7.22283 10.9042 9.71128C10.9042 12.1997 12.6887 14 15.1929 14C16.9479 14 18.5214 13.1304 19.1662 11.2868H17.4112C17.0208 12.0972 16.1966 12.5172 15.2067 12.5172C13.8265 12.5172 12.7617 11.6772 12.6276 10.1628H19.3298C19.4955 7.44762 17.8174 5.39297 15.1634 5.39297ZM12.7183 8.78255C13.0022 7.67241 13.8718 6.86396 15.1634 6.86396C16.4076 6.86396 17.2634 7.65861 17.5177 8.78255H12.7183Z" fill="black"/>
<path d="M27.8344 5.75183H25.7955L24.0268 8.51239L22.1969 5.75183H20.1718L22.962 9.75662L20.0062 14H22.047L23.9656 11.0462L25.9611 14H27.9842L25.0462 9.7862L27.8344 5.75183Z" fill="black"/>
<path d="M31.1352 2.45297H29.4256V14H31.1352V2.45297Z" fill="black"/>
<path d="M37.1335 5.39297C34.6451 5.39297 32.8744 7.22283 32.8744 9.71128C32.8744 12.1997 34.6589 14 37.1631 14C38.918 14 40.4915 13.1304 41.1363 11.2868H39.3814C38.991 12.0972 38.1668 12.5172 37.1769 12.5172C35.7966 12.5172 34.7318 11.6772 34.5977 10.1628H41.3C41.4676 7.44762 39.7876 5.39297 37.1335 5.39297ZM34.6884 8.78255C34.9724 7.67241 35.8439 6.86396 37.1335 6.86396C38.3777 6.86396 39.2335 7.65861 39.4879 8.78255H34.6884Z" fill="black"/>
<path d="M48.996 12.0203C48.3513 12.2451 47.7656 12.4245 47.2411 12.4245C46.1763 12.4245 45.6222 11.7639 45.6222 10.5651V7.1617H49.0118V5.5724H45.6222V3.32254L43.9284 3.69719V5.5724H42.3983V7.1617H43.9284V10.6558C43.9284 12.9352 45.2476 14 46.9434 14C47.8879 14 48.8482 13.6707 49.2977 13.4006L48.996 12.0203Z" fill="black"/>
<path d="M7.19914 4.13296V7.79268H1.81604V4.13296L0.12027 3.51578V14H1.81604V9.41155H7.19914V14H8.89295V3.51578L7.19914 4.13296Z" fill="black"/>
<path d="M9.01324 1.68789L4.50761 0L0 1.68789L4.50761 3.32845L9.01324 1.68789Z" fill="#136EF6"/>
</g>
<path d="M58.935 4.805C58.705 4.805 58.47 4.825 58.23 4.865C57.99 4.905 57.77 4.98 57.57 5.09C57.37 5.19 57.205 5.335 57.075 5.525C56.945 5.705 56.88 5.935 56.88 6.215C56.88 6.635 57.02 6.955 57.3 7.175C57.58 7.385 57.915 7.545 58.305 7.655C58.585 7.735 58.865 7.81 59.145 7.88C59.435 7.95 59.7 8.01 59.94 8.06C60.36 8.15 60.755 8.26 61.125 8.39C61.505 8.52 61.835 8.695 62.115 8.915C62.395 9.125 62.615 9.395 62.775 9.725C62.945 10.045 63.03 10.445 63.03 10.925C63.03 11.495 62.925 11.98 62.715 12.38C62.515 12.78 62.24 13.11 61.89 13.37C61.54 13.63 61.13 13.82 60.66 13.94C60.19 14.06 59.685 14.12 59.145 14.12C58.595 14.12 58.07 14.065 57.57 13.955C57.08 13.835 56.64 13.65 56.25 13.4C55.86 13.14 55.535 12.81 55.275 12.41C55.015 12.01 54.85 11.53 54.78 10.97H56.58C56.66 11.27 56.79 11.52 56.97 11.72C57.15 11.92 57.355 12.08 57.585 12.2C57.825 12.32 58.08 12.405 58.35 12.455C58.62 12.505 58.885 12.53 59.145 12.53C59.425 12.53 59.695 12.51 59.955 12.47C60.215 12.42 60.44 12.34 60.63 12.23C60.82 12.12 60.975 11.975 61.095 11.795C61.215 11.615 61.275 11.38 61.275 11.09C61.275 10.69 61.17 10.4 60.96 10.22C60.75 10.03 60.47 9.89 60.12 9.8C59.64 9.66 59.145 9.54 58.635 9.44C58.135 9.33 57.66 9.19 57.21 9.02C56.91 8.91 56.635 8.78 56.385 8.63C56.135 8.48 55.915 8.3 55.725 8.09C55.535 7.88 55.385 7.635 55.275 7.355C55.175 7.065 55.125 6.73 55.125 6.35C55.125 5.77 55.235 5.285 55.455 4.895C55.675 4.495 55.96 4.175 56.31 3.935C56.67 3.695 57.075 3.525 57.525 3.425C57.975 3.315 58.435 3.26 58.905 3.26C59.405 3.26 59.88 3.32 60.33 3.44C60.78 3.55 61.18 3.725 61.53 3.965C61.88 4.205 62.16 4.515 62.37 4.895C62.59 5.275 62.72 5.735 62.76 6.275H61.05C61.01 6.005 60.925 5.78 60.795 5.6C60.675 5.42 60.52 5.275 60.33 5.165C60.15 5.045 59.94 4.96 59.7 4.91C59.46 4.85 59.205 4.815 58.935 4.805ZM66.7991 14H65.0591V3.395H66.7991V14ZM73.6732 4.82C73.1132 4.82 72.6282 4.925 72.2182 5.135C71.8182 5.345 71.4882 5.625 71.2282 5.975C70.9682 6.325 70.7732 6.735 70.6432 7.205C70.5232 7.665 70.4632 8.15 70.4632 8.66C70.4632 9.18 70.5282 9.675 70.6582 10.145C70.7882 10.615 70.9832 11.03 71.2432 11.39C71.5132 11.74 71.8532 12.02 72.2632 12.23C72.6732 12.44 73.1582 12.545 73.7182 12.545C74.4082 12.545 74.9832 12.395 75.4432 12.095C75.9132 11.795 76.2082 11.39 76.3282 10.88H78.0682C77.9882 11.39 77.8182 11.845 77.5582 12.245C77.3082 12.645 76.9932 12.985 76.6132 13.265C76.2332 13.535 75.7932 13.745 75.2932 13.895C74.7932 14.035 74.2582 14.105 73.6882 14.105C72.8582 14.105 72.1282 13.97 71.4982 13.7C70.8782 13.43 70.3582 13.055 69.9382 12.575C69.5182 12.095 69.2032 11.525 68.9932 10.865C68.7832 10.205 68.6782 9.48 68.6782 8.69C68.6782 7.92 68.7832 7.205 68.9932 6.545C69.2132 5.875 69.5332 5.3 69.9532 4.82C70.3732 4.33 70.8932 3.95 71.5132 3.68C72.1432 3.4 72.8732 3.26 73.7032 3.26C74.8732 3.26 75.8382 3.535 76.5982 4.085C77.3582 4.635 77.8182 5.445 77.9782 6.515H76.2682C76.1382 5.995 75.8482 5.585 75.3982 5.285C74.9482 4.975 74.3732 4.82 73.6732 4.82ZM79.854 3.395H83.739C84.349 3.395 84.894 3.465 85.374 3.605C85.864 3.735 86.279 3.945 86.619 4.235C86.969 4.525 87.234 4.9 87.414 5.36C87.604 5.81 87.699 6.355 87.699 6.995C87.699 7.585 87.599 8.11 87.399 8.57C87.209 9.03 86.934 9.415 86.574 9.725C86.224 10.035 85.804 10.27 85.314 10.43C84.824 10.59 84.279 10.67 83.679 10.67H81.594V14H79.854V3.395ZM83.589 9.14C84.259 9.14 84.814 8.975 85.254 8.645C85.704 8.305 85.939 7.78 85.959 7.07C85.959 6.32 85.764 5.78 85.374 5.45C84.994 5.12 84.434 4.955 83.694 4.955H81.594V9.14H83.589Z" fill="#136EF6"/>
<defs>
<clipPath id="clip0_36_35">
<rect width="49.2958" height="14" fill="white"/>
</clipPath>
</defs>
</svg>
