<svg width="113" height="15" viewBox="0 0 113 15" fill="none" xmlns="http://www.w3.org/2000/svg">
<g clip-path="url(#clip0_36_81)">
<path d="M8.99555 3.04181L6.30065 4.03708L4.68471 6.68181L3.08383 4.06763L0.373874 3.06726L3.56058 8.09199L0 13.8091H2.09269L4.63704 9.59635L7.21401 13.8091H9.30419L5.76117 8.20399L8.99555 3.04181Z" fill="black"/>
<path d="M11.7406 8.48908C11.8645 7.90166 12.1868 7.37662 12.6519 7.00477C13.117 6.63292 13.6955 6.43765 14.2875 6.45271C14.8685 6.43936 15.435 6.63733 15.8846 7.01081C16.3342 7.3843 16.6373 7.90865 16.739 8.48908H11.7406ZM14.2875 4.90762C11.6955 4.90762 9.8537 6.84217 9.8537 9.46908C9.8537 12.096 11.7105 14 14.3176 14C16.1443 14 17.7828 13.0811 18.4553 11.1338H16.6286C16.2221 11.9891 15.374 12.432 14.3327 12.432C12.8974 12.432 11.7883 11.5462 11.6478 9.94508H18.6259C18.7991 7.0789 17.0627 4.90762 14.2875 4.90762Z" fill="black"/>
<path d="M28.166 5.09854H25.9027L22.1865 8.86836V5.09854H20.4225V13.8091H22.1865V9.78727L26.2314 13.8091H28.5098L23.9681 9.23236L28.166 5.09854Z" fill="black"/>
<path d="M33.2572 6.57237C34.3663 6.57237 35.3198 7.1731 35.646 8.26764H37.4727C37.0837 6.16001 35.2871 4.90764 33.2572 4.90764C32.6657 4.89361 32.0776 5.00175 31.5286 5.22548C30.9796 5.44921 30.4812 5.78386 30.0637 6.20909C29.6461 6.63432 29.3182 7.14124 29.0998 7.69904C28.8814 8.25684 28.7771 8.85386 28.7933 9.45382C28.7933 12.0527 30.6978 14 33.2421 14C35.2495 14 37.0662 12.7807 37.4727 10.6273H35.646C35.4864 11.1408 35.1645 11.5867 34.7299 11.896C34.2954 12.2052 33.7725 12.3605 33.2421 12.3378C31.6964 12.3378 30.5723 11.1491 30.5723 9.45382C30.5723 7.75855 31.6663 6.57237 33.2572 6.57237Z" fill="black"/>
<path d="M40.1475 10.2633C39.8815 11.8771 39.5227 12.3378 38.6947 12.3378C38.5241 12.3378 38.3509 12.3047 38.1928 12.2895V13.9058C38.4811 13.9598 38.773 13.9913 39.066 14C40.5339 14 41.4874 13.0175 41.909 10.4211L42.4685 6.77855H45.3115V13.8091H47.0679V5.09091H40.9555L40.1475 10.2633Z" fill="black"/>
<path d="M50.7941 8.48908C50.917 7.90163 51.2388 7.37636 51.7035 7.0044C52.1683 6.63244 52.7467 6.43725 53.3385 6.45271C53.9195 6.43936 54.486 6.63733 54.9356 7.01081C55.3852 7.3843 55.6883 7.90865 55.79 8.48908H50.7941ZM53.3385 4.90762C50.7465 4.90762 48.9047 6.84217 48.9047 9.46908C48.9047 12.096 50.7615 14 53.3686 14C55.1953 14 56.8363 13.0811 57.5063 11.1338H55.6796C55.2731 11.9891 54.425 12.432 53.3862 12.432C51.9484 12.432 50.8393 11.5462 50.6988 9.94508H57.6794C57.8501 7.0789 56.1011 4.90762 53.3385 4.90762Z" fill="black"/>
<path d="M63.2072 5.09854H58.6329V6.77854H61.4433V13.8091H63.2072V6.77854H66V5.09854H63.2072Z" fill="black"/>
<path d="M9.01061 1.65455L4.65209 0L0.293579 1.65455L4.65209 3.26582L9.01061 1.65455Z" fill="#136EF6"/>
</g>
<path d="M75.64 4.82C75.08 4.82 74.595 4.925 74.185 5.135C73.785 5.345 73.455 5.625 73.195 5.975C72.935 6.325 72.74 6.735 72.61 7.205C72.49 7.665 72.43 8.15 72.43 8.66C72.43 9.18 72.495 9.675 72.625 10.145C72.755 10.615 72.95 11.03 73.21 11.39C73.48 11.74 73.82 12.02 74.23 12.23C74.64 12.44 75.125 12.545 75.685 12.545C76.375 12.545 76.95 12.395 77.41 12.095C77.88 11.795 78.175 11.39 78.295 10.88H80.035C79.955 11.39 79.785 11.845 79.525 12.245C79.275 12.645 78.96 12.985 78.58 13.265C78.2 13.535 77.76 13.745 77.26 13.895C76.76 14.035 76.225 14.105 75.655 14.105C74.825 14.105 74.095 13.97 73.465 13.7C72.845 13.43 72.325 13.055 71.905 12.575C71.485 12.095 71.17 11.525 70.96 10.865C70.75 10.205 70.645 9.48 70.645 8.69C70.645 7.92 70.75 7.205 70.96 6.545C71.18 5.875 71.5 5.3 71.92 4.82C72.34 4.33 72.86 3.95 73.48 3.68C74.11 3.4 74.84 3.26 75.67 3.26C76.84 3.26 77.805 3.535 78.565 4.085C79.325 4.635 79.785 5.445 79.945 6.515H78.235C78.105 5.995 77.815 5.585 77.365 5.285C76.915 4.975 76.34 4.82 75.64 4.82ZM81.9087 14V3.395H83.6487V11.18L89.0937 3.395H90.6537V14H88.9137V6.29L83.4687 14H81.9087ZM94.8548 14H93.1148V3.395H94.8548V8.03H96.2198L99.4898 3.395H101.485L97.7048 8.54L101.53 14H99.5048L96.3848 9.575H94.8548V14ZM111.51 14H109.77V4.955H104.64V14H102.9V3.395H111.51V14Z" fill="#136EF6"/>
<defs>
<clipPath id="clip0_36_81">
<rect width="66" height="14" fill="white"/>
</clipPath>
</defs>
</svg>
